<svg width="50" height="50" viewBox="0 0 50 50" fill="none" xmlns="http://www.w3.org/2000/svg">
<path d="M8.36875 37.1688C8.69312 37.4944 8.94167 37.8875 9.09669 38.3202C9.25172 38.7528 9.3094 39.2144 9.26562 39.6719C9.046 41.7893 8.62961 43.8817 8.02187 45.9219C12.3812 44.9125 15.0438 43.7438 16.2531 43.1313C16.9391 42.7838 17.729 42.7015 18.4719 42.9C20.6014 43.4677 22.7961 43.7535 25 43.75C37.4875 43.75 46.875 34.9781 46.875 25C46.875 15.025 37.4875 6.25 25 6.25C12.5125 6.25 3.125 15.025 3.125 25C3.125 29.5875 5.05312 33.8438 8.36875 37.1688ZM6.82812 49.3719C6.08771 49.5187 5.3449 49.653 4.6 49.775C3.975 49.875 3.5 49.225 3.74688 48.6437C4.02435 47.9894 4.27867 47.3254 4.50937 46.6531L4.51875 46.6219C5.29375 44.3719 5.925 41.7844 6.15625 39.375C2.32188 35.5313 0 30.5 0 25C0 12.9188 11.1937 3.125 25 3.125C38.8063 3.125 50 12.9188 50 25C50 37.0812 38.8063 46.875 25 46.875C22.5239 46.8783 20.0581 46.5568 17.6656 45.9188C16.0406 46.7406 12.5437 48.2375 6.82812 49.3719V49.3719Z" fill="white"/>
</svg>
