<svg width="28" height="28" viewBox="0 0 28 28" fill="none" xmlns="http://www.w3.org/2000/svg">
<circle cx="14" cy="14" r="13" stroke="white" stroke-width="2"/>
<path d="M7 10.5C7 10.0359 7.18437 9.59075 7.51256 9.26256C7.84075 8.93437 8.28587 8.75 8.75 8.75H19.25C19.7141 8.75 20.1592 8.93437 20.4874 9.26256C20.8156 9.59075 21 10.0359 21 10.5V17.5C21 17.9641 20.8156 18.4092 20.4874 18.7374C20.1592 19.0656 19.7141 19.25 19.25 19.25H8.75C8.28587 19.25 7.84075 19.0656 7.51256 18.7374C7.18437 18.4092 7 17.9641 7 17.5V10.5ZM8.75 9.625C8.51794 9.625 8.29538 9.71719 8.13128 9.88128C7.96719 10.0454 7.875 10.2679 7.875 10.5V10.6899L14 14.3649L20.125 10.6899V10.5C20.125 10.2679 20.0328 10.0454 19.8687 9.88128C19.7046 9.71719 19.4821 9.625 19.25 9.625H8.75ZM20.125 11.7101L16.0055 14.182L20.125 16.7169V11.7101ZM20.0952 17.7266L15.1602 14.6895L14 15.3851L12.8397 14.6895L7.90475 17.7257C7.95447 17.9119 8.06428 18.0765 8.21712 18.1939C8.36996 18.3113 8.55728 18.375 8.75 18.375H19.25C19.4426 18.375 19.6298 18.3115 19.7827 18.1943C19.9355 18.077 20.0454 17.9127 20.0952 17.7266ZM7.875 16.7169L11.9945 14.182L7.875 11.7101V16.7169Z" fill="white"/>
</svg>
