<svg width="28" height="28" viewBox="0 0 28 28" fill="none" xmlns="http://www.w3.org/2000/svg">
<g clip-path="url(#clip0_10_824)">
<path fill-rule="evenodd" clip-rule="evenodd" d="M8.6493 7.44738C8.8024 7.2945 8.98624 7.17591 9.18865 7.09947C9.39105 7.02302 9.60738 6.99046 9.82332 7.00395C10.0393 7.01743 10.2499 7.07665 10.4412 7.17769C10.6325 7.27873 10.8002 7.41927 10.933 7.59L12.5037 9.60775C12.7915 9.97788 12.893 10.46 12.7793 10.915L12.3007 12.8313C12.2759 12.9305 12.2773 13.0345 12.3046 13.133C12.3318 13.2316 12.3842 13.3215 12.4564 13.3939L14.6063 15.5438C14.6788 15.6162 14.7688 15.6686 14.8675 15.6959C14.9663 15.7232 15.0704 15.7244 15.1698 15.6995L17.0852 15.2209C17.3097 15.1647 17.5441 15.1604 17.7705 15.2081C17.997 15.2559 18.2097 15.3545 18.3924 15.4965L20.4102 17.0662C21.1355 17.6306 21.202 18.7025 20.5528 19.3509L19.648 20.2556C19.0005 20.9031 18.0328 21.1875 17.1307 20.8699C14.8217 20.0575 12.7253 18.7356 10.9969 17.0024C9.2638 15.2743 7.94196 13.1782 7.12942 10.8695C6.81267 9.96825 7.09705 8.99963 7.74455 8.35213L8.6493 7.44738Z" fill="white"/>
</g>
<circle cx="14" cy="14" r="13" stroke="white" stroke-width="2"/>
<defs>
<clipPath id="clip0_10_824">
<rect width="14" height="14" fill="white" transform="translate(7 7)"/>
</clipPath>
</defs>
</svg>
