<svg width="50" height="50" viewBox="0 0 50 50" fill="none" xmlns="http://www.w3.org/2000/svg">
<path d="M29.6875 8.35002C29.6875 8.76443 29.8521 9.16185 30.1452 9.45488C30.4382 9.7479 30.8356 9.91252 31.25 9.91252C31.6644 9.91252 32.0618 9.7479 32.3549 9.45488C32.6479 9.16185 32.8125 8.76443 32.8125 8.35002V2.6344C32.8125 2.22 32.6479 1.82257 32.3549 1.52955C32.0618 1.23652 31.6644 1.0719 31.25 1.0719C30.8356 1.0719 30.4382 1.23652 30.1452 1.52955C29.8521 1.82257 29.6875 2.22 29.6875 2.6344V8.35002ZM43.75 8.4594C44.0346 8.16471 44.1921 7.77002 44.1886 7.36034C44.185 6.95065 44.0207 6.55876 43.731 6.26906C43.4413 5.97936 43.0494 5.81503 42.6397 5.81147C42.23 5.80791 41.8353 5.9654 41.5406 6.25002L37.5 10.2906C37.3508 10.4348 37.2317 10.6072 37.1498 10.7978C37.068 10.9885 37.0249 11.1935 37.0231 11.401C37.0213 11.6084 37.0608 11.8142 37.1393 12.0062C37.2179 12.1982 37.3339 12.3727 37.4806 12.5194C37.6273 12.6661 37.8018 12.7821 37.9938 12.8607C38.1859 12.9392 38.3916 12.9788 38.5991 12.977C38.8065 12.9752 39.0116 12.9321 39.2022 12.8502C39.3928 12.7683 39.5652 12.6493 39.7094 12.5L43.75 8.4594ZM22.7906 12.5C22.9348 12.6493 23.1072 12.7683 23.2978 12.8502C23.4884 12.9321 23.6935 12.9752 23.9009 12.977C24.1084 12.9788 24.3142 12.9392 24.5062 12.8607C24.6982 12.7821 24.8727 12.6661 25.0194 12.5194C25.1661 12.3727 25.2821 12.1982 25.3607 12.0062C25.4392 11.8142 25.4788 11.6084 25.477 11.401C25.4752 11.1935 25.4321 10.9885 25.3502 10.7978C25.2683 10.6072 25.1492 10.4348 25 10.2906L20.9594 6.25002C20.6647 5.9654 20.27 5.80791 19.8603 5.81147C19.4506 5.81503 19.0587 5.97936 18.769 6.26906C18.4793 6.55876 18.315 6.95065 18.3115 7.36034C18.3079 7.77002 18.4654 8.16471 18.75 8.4594L22.7906 12.5ZM20.85 20.3125C21.2644 20.3125 21.6618 20.1479 21.9549 19.8549C22.2479 19.5619 22.4125 19.1644 22.4125 18.75C22.4125 18.3356 22.2479 17.9382 21.9549 17.6452C21.6618 17.3521 21.2644 17.1875 20.85 17.1875H15.1344C14.72 17.1875 14.3226 17.3521 14.0295 17.6452C13.7365 17.9382 13.5719 18.3356 13.5719 18.75C13.5719 19.1644 13.7365 19.5619 14.0295 19.8549C14.3226 20.1479 14.72 20.3125 15.1344 20.3125H20.85ZM47.3656 20.3125C47.78 20.3125 48.1775 20.1479 48.4705 19.8549C48.7635 19.5619 48.9281 19.1644 48.9281 18.75C48.9281 18.3356 48.7635 17.9382 48.4705 17.6452C48.1775 17.3521 47.78 17.1875 47.3656 17.1875H41.65C41.2356 17.1875 40.8382 17.3521 40.5452 17.6452C40.2521 17.9382 40.0875 18.3356 40.0875 18.75C40.0875 19.1644 40.2521 19.5619 40.5452 19.8549C40.8382 20.1479 41.2356 20.3125 41.65 20.3125H47.3656ZM41.5406 31.25C41.6848 31.3993 41.8572 31.5183 42.0478 31.6002C42.2384 31.6821 42.4435 31.7252 42.6509 31.727C42.8584 31.7288 43.0642 31.6892 43.2562 31.6107C43.4482 31.5321 43.6227 31.4161 43.7694 31.2694C43.9161 31.1227 44.0321 30.9482 44.1107 30.7562C44.1892 30.5642 44.2288 30.3584 44.227 30.151C44.2252 29.9435 44.1821 29.7385 44.1002 29.5478C44.0183 29.3572 43.8992 29.1848 43.75 29.0406L39.7094 25C39.5652 24.8508 39.3928 24.7318 39.2022 24.6499C39.0116 24.568 38.8065 24.5249 38.5991 24.5231C38.3916 24.5213 38.1859 24.5608 37.9938 24.6394C37.8018 24.7179 37.6273 24.834 37.4806 24.9807C37.3339 25.1274 37.2179 25.3018 37.1393 25.4938C37.0608 25.6859 37.0213 25.8916 37.0231 26.0991C37.0249 26.3066 37.068 26.5116 37.1498 26.7022C37.2317 26.8928 37.3508 27.0653 37.5 27.2094L41.5406 31.25ZM29.6875 34.8656C29.6875 35.28 29.8521 35.6775 30.1452 35.9705C30.4382 36.2635 30.8356 36.4281 31.25 36.4281C31.6644 36.4281 32.0618 36.2635 32.3549 35.9705C32.6479 35.6775 32.8125 35.28 32.8125 34.8656V29.15C32.8125 28.7356 32.6479 28.3382 32.3549 28.0452C32.0618 27.7521 31.6644 27.5875 31.25 27.5875C30.8356 27.5875 30.4382 27.7521 30.1452 28.0452C29.8521 28.3382 29.6875 28.7356 29.6875 29.15V34.8656ZM35.4813 18.9375C35.7732 18.6446 35.9372 18.248 35.9372 17.8344C35.9372 17.4208 35.7732 17.0242 35.4813 16.7313L33.2688 14.5188C32.9757 14.2259 32.5784 14.0613 32.1641 14.0613C31.7498 14.0613 31.3524 14.2259 31.0594 14.5188L27.0188 18.5625C26.7258 18.8555 26.5613 19.2529 26.5613 19.6672C26.5613 20.0815 26.7258 20.4789 27.0188 20.7719L29.2313 22.9844C29.5243 23.2773 29.9216 23.4419 30.3359 23.4419C30.7503 23.4419 31.1476 23.2773 31.4406 22.9844L35.4813 18.9438V18.9375ZM26.1063 28.3125C26.3982 28.0196 26.5622 27.623 26.5622 27.2094C26.5622 26.7958 26.3982 26.3992 26.1063 26.1063L23.8938 23.8938C23.6007 23.6009 23.2034 23.4363 22.7891 23.4363C22.3748 23.4363 21.9774 23.6009 21.6844 23.8938L2.01876 43.5625C1.72583 43.8555 1.56128 44.2529 1.56128 44.6672C1.56128 45.0815 1.72583 45.4789 2.01876 45.7719L4.23126 47.9844C4.52427 48.2773 4.92163 48.4419 5.33595 48.4419C5.75026 48.4419 6.14762 48.2773 6.44063 47.9844L26.1063 28.3125Z" fill="white"/>
</svg>
