<svg width="50" height="50" viewBox="0 0 50 50" fill="none" xmlns="http://www.w3.org/2000/svg">
<path d="M40.625 7.8125C40.625 6.5693 41.1189 5.37701 41.9979 4.49794C42.877 3.61886 44.0693 3.125 45.3125 3.125C46.5557 3.125 47.748 3.61886 48.6271 4.49794C49.5061 5.37701 50 6.5693 50 7.8125V42.1875C50 43.4307 49.5061 44.623 48.6271 45.5021C47.748 46.3811 46.5557 46.875 45.3125 46.875C44.0693 46.875 42.877 46.3811 41.9979 45.5021C41.1189 44.623 40.625 43.4307 40.625 42.1875V7.8125ZM37.5 10.075C31.0406 13.0437 23.3156 14.7031 15.625 15.25V34.7406C16.7601 34.8046 17.8937 34.8932 19.025 35.0062C25.4406 35.6437 31.6438 37.0938 37.5 39.8813V10.075ZM12.5 34.5781V15.4188C10.375 15.5031 8.12813 15.5531 6.225 15.5844C4.56981 15.6073 2.98986 16.2795 1.82551 17.4561C0.661156 18.6328 0.00557745 20.2197 0 21.875L0 28.125C0 31.5812 2.8 34.3625 6.23125 34.4031C6.74795 34.4096 7.26462 34.4179 7.78125 34.4281C9.3547 34.4596 10.9277 34.5096 12.5 34.5781V34.5781ZM16.8437 37.9562C17.7344 38.0219 18.6219 38.1031 19.5 38.2L20.2906 43.4812C20.3767 43.9332 20.3618 44.3986 20.2472 44.8441C20.1326 45.2897 19.921 45.7045 19.6276 46.0588C19.3341 46.4132 18.9661 46.6983 18.5497 46.894C18.1333 47.0896 17.6788 47.1909 17.2188 47.1906H15.5062C14.8988 47.1906 14.3046 47.0135 13.7962 46.6811C13.2878 46.3486 12.8873 45.8752 12.6438 45.3187L8.5375 37.5688C10.3008 37.6127 12.0634 37.6794 13.825 37.7688C14.8469 37.8219 15.8562 37.8844 16.8437 37.9562V37.9562Z" fill="white"/>
</svg>
