<svg viewBox="0 0 1440 336" fill="none" xmlns="http://www.w3.org/2000/svg" viewBox="" preserveAspectRatio="xMidYMid meet">
<g filter="url(#filter0_i_3_44)">
<path fill-rule="evenodd" clip-rule="evenodd" d="M0 249.369L27 234.369C53 220.369 107 191.369 160 155.369C213 119.369 267 76.3687 320 83.3687C373 90.3687 427 148.369 480 184.369C533 220.369 587 234.369 640 234.369C693 234.369 747 220.369 800 177.369C853 133.369 907 61.3687 960 25.3687C1013 -10.6313 1067 -10.6313 1120 40.3687C1173 90.3687 1227 191.369 1280 234.369C1333 277.369 1387 263.369 1413 256.369L1440 249.369V335.369H1413C1387 335.369 1333 335.369 1280 335.369C1227 335.369 1173 335.369 1120 335.369C1067 335.369 1013 335.369 960 335.369C907 335.369 853 335.369 800 335.369C747 335.369 693 335.369 640 335.369C587 335.369 533 335.369 480 335.369C427 335.369 373 335.369 320 335.369C267 335.369 213 335.369 160 335.369C107 335.369 53 335.369 27 335.369H0V249.369Z" fill="white"/>
<path fill-rule="evenodd" clip-rule="evenodd" d="M0 249.369L27 234.369C53 220.369 107 191.369 160 155.369C213 119.369 267 76.3687 320 83.3687C373 90.3687 427 148.369 480 184.369C533 220.369 587 234.369 640 234.369C693 234.369 747 220.369 800 177.369C853 133.369 907 61.3687 960 25.3687C1013 -10.6313 1067 -10.6313 1120 40.3687C1173 90.3687 1227 191.369 1280 234.369C1333 277.369 1387 263.369 1413 256.369L1440 249.369V335.369H1413C1387 335.369 1333 335.369 1280 335.369C1227 335.369 1173 335.369 1120 335.369C1067 335.369 1013 335.369 960 335.369C907 335.369 853 335.369 800 335.369C747 335.369 693 335.369 640 335.369C587 335.369 533 335.369 480 335.369C427 335.369 373 335.369 320 335.369C267 335.369 213 335.369 160 335.369C107 335.369 53 335.369 27 335.369H0V249.369Z" stroke="black"/>
</g>
<defs>
<filter id="filter0_i_3_44" x="0" y="0" width="1440" height="339.369" filterUnits="userSpaceOnUse" color-interpolation-filters="sRGB">
<feFlood flood-opacity="0" result="BackgroundImageFix"/>
<feBlend mode="normal" in="SourceGraphic" in2="BackgroundImageFix" result="shape"/>
<feColorMatrix in="SourceAlpha" type="matrix" values="0 0 0 0 0 0 0 0 0 0 0 0 0 0 0 0 0 0 127 0" result="hardAlpha"/>
<feOffset dy="4"/>
<feGaussianBlur stdDeviation="2"/>
<feComposite in2="hardAlpha" operator="arithmetic" k2="-1" k3="1"/>
<feColorMatrix type="matrix" values="0 0 0 0 0 0 0 0 0 0 0 0 0 0 0 0 0 0 0.25 0"/>
<feBlend mode="normal" in2="shape" result="effect1_innerShadow_3_44"/>
</filter>
</defs>
</svg>
