<svg viewBox="0 0 1438 214" fill="none" xmlns="http://www.w3.org/2000/svg">
<path d="M-11 128.4L49.4583 149.8C109.917 171.2 230.833 214 351.75 214C472.667 214 593.583 171.2 714.5 142.711C835.417 113.687 956.333 100.312 1077.25 107C1198.17 113.687 1319.08 143.113 1379.54 156.889L1440 171.2V0H1379.54C1319.08 0 1198.17 0 1077.25 0C956.333 0 835.417 0 714.5 0C593.583 0 472.667 0 351.75 0C230.833 0 109.917 0 49.4583 0H-11V128.4Z" fill="url(#paint0_linear_257_613)"/>
<defs>
<linearGradient id="paint0_linear_257_613" x1="-11" y1="107" x2="1440" y2="107" gradientUnits="userSpaceOnUse">
<stop stop-color="#2D9EE0"/>
<stop offset="0.5" stop-color="#2F80ED"/>
<stop offset="1" stop-color="#4333FF"/>
</linearGradient>
</defs>
</svg>
