<svg viewBox="0 0 1438 231" fill="none" xmlns="http://www.w3.org/2000/svg">
<path d="M0 6.21376L48 22.2138C96 38.2138 192 70.2138 288 75.5138C384 81.2138 480 59.2138 576 38.2138C672 17.2138 768 -4.78624 864 0.913756C960 6.21376 1056 38.2138 1152 64.9138C1248 91.2138 1344 113.214 1392 123.514L1440 134.214V230.214H1392C1344 230.214 1248 230.214 1152 230.214C1056 230.214 960 230.214 864 230.214C768 230.214 672 230.214 576 230.214C480 230.214 384 230.214 288 230.214C192 230.214 96 230.214 48 230.214H0V6.21376Z" fill="url(#paint0_linear_241_646)"/>
<defs>
<linearGradient id="paint0_linear_241_646" x1="0" y1="115.107" x2="1440" y2="115.107" gradientUnits="userSpaceOnUse">
<stop stop-color="#2D9EE0"/>
<stop offset="0.5" stop-color="#2F80ED"/>
<stop offset="1" stop-color="#4333FF"/>
</linearGradient>
</defs>
</svg>
