<svg viewBox="0 0 1438 264" fill="none" xmlns="http://www.w3.org/2000/svg">
<path d="M0.995834 152.367L60.9125 164.808C120.829 176.783 240.662 202.362 360.496 189.572C480.329 176.783 600.162 127.951 719.996 77.9566C839.829 27.9621 959.662 -20.8697 1079.5 9.70832C1199.33 40.7514 1319.16 152.367 1379.08 208.175L1439 263.983H1379.08C1319.16 263.983 1199.33 263.983 1079.5 263.983C959.662 263.983 839.829 263.983 719.996 263.983C600.162 263.983 480.329 263.983 360.496 263.983C240.662 263.983 120.829 263.983 60.9125 263.983H0.995834V152.367Z" fill="url(#paint0_linear_241_623)"/>
<defs>
<linearGradient id="paint0_linear_241_623" x1="0.995834" y1="132.101" x2="1439" y2="132.101" gradientUnits="userSpaceOnUse">
<stop stop-color="#2D9EE0"/>
<stop offset="0.5" stop-color="#2F80ED"/>
<stop offset="1" stop-color="#4333FF"/>
</linearGradient>
</defs>
</svg>
