<svg width="211" height="20" viewBox="0 0 211 20" fill="none" xmlns="http://www.w3.org/2000/svg">
<path d="M15.5117 0.625C16.8867 0.625 18.043 0.710938 18.9805 0.882812C19.9258 1.04688 20.7031 1.30078 21.3125 1.64453C21.9219 1.98047 22.3906 2.40625 22.7188 2.92188C23.0469 3.4375 23.2852 4.04297 23.4336 4.73828C23.5898 5.43359 23.6797 6.21875 23.7031 7.09375C23.7344 7.96875 23.75 8.9375 23.75 10C23.75 11.0625 23.7344 12.0312 23.7031 12.9062C23.6797 13.7812 23.5898 14.5664 23.4336 15.2617C23.2852 15.957 23.0469 16.5625 22.7188 17.0781C22.3906 17.5938 21.9219 18.0234 21.3125 18.3672C20.7031 18.7031 19.9258 18.9531 18.9805 19.1172C18.043 19.2891 16.8867 19.375 15.5117 19.375H8.73828C7.36328 19.375 6.20312 19.2891 5.25781 19.1172C4.32031 18.9531 3.54688 18.7031 2.9375 18.3672C2.32812 18.0234 1.85547 17.5938 1.51953 17.0781C1.19141 16.5625 0.949219 15.957 0.792969 15.2617C0.644531 14.5664 0.558594 13.7812 0.535156 12.9062C0.511719 12.0312 0.5 11.0625 0.5 10C0.5 8.9375 0.511719 7.96875 0.535156 7.09375C0.558594 6.21875 0.644531 5.43359 0.792969 4.73828C0.949219 4.04297 1.19141 3.4375 1.51953 2.92188C1.85547 2.40625 2.32812 1.98047 2.9375 1.64453C3.54688 1.30078 4.32031 1.04688 5.25781 0.882812C6.20312 0.710938 7.36328 0.625 8.73828 0.625H15.5117ZM15.5117 17.5C16.5039 17.5 17.3398 17.4727 18.0195 17.418C18.707 17.3555 19.2734 17.2344 19.7188 17.0547C20.1641 16.875 20.5078 16.6172 20.75 16.2812C20.9922 15.9453 21.168 15.5 21.2773 14.9453C21.3867 14.3906 21.4492 13.7109 21.4648 12.9062C21.4883 12.0938 21.5 11.125 21.5 10C21.5 8.875 21.4883 7.91016 21.4648 7.10547C21.4492 6.29297 21.3867 5.60938 21.2773 5.05469C21.168 4.5 20.9922 4.05469 20.75 3.71875C20.5078 3.38281 20.1641 3.125 19.7188 2.94531C19.2812 2.76562 18.7188 2.64844 18.0312 2.59375C17.3516 2.53125 16.5117 2.5 15.5117 2.5H8.73828C7.73828 2.5 6.89453 2.53125 6.20703 2.59375C5.52734 2.64844 4.96484 2.76562 4.51953 2.94531C4.07422 3.125 3.73047 3.38281 3.48828 3.71875C3.24609 4.05469 3.07031 4.5 2.96094 5.05469C2.85156 5.60938 2.78906 6.29297 2.77344 7.10547C2.75781 7.91016 2.75 8.875 2.75 10C2.75 11.125 2.75781 12.0938 2.77344 12.9062C2.79688 13.7109 2.86328 14.3906 2.97266 14.9453C3.08203 15.5 3.25391 15.9453 3.48828 16.2812C3.73047 16.6172 4.07422 16.875 4.51953 17.0547C4.96484 17.2344 5.52734 17.3555 6.20703 17.418C6.89453 17.4727 7.73828 17.5 8.73828 17.5H15.5117ZM47 1V2.875H38V19H35.75V2.875H26.75V1H47ZM50.75 1H53V19H50.75V1ZM78.5117 1V10C78.5117 11.0625 78.4961 12.0312 78.4648 12.9062C78.4414 13.7812 78.3516 14.5664 78.1953 15.2617C78.0469 15.957 77.8086 16.5625 77.4805 17.0781C77.1523 17.5938 76.6836 18.0234 76.0742 18.3672C75.4648 18.7031 74.6875 18.9531 73.7422 19.1172C72.8047 19.2891 71.6484 19.375 70.2734 19.375H65C63.625 19.375 62.4648 19.2891 61.5195 19.1172C60.582 18.9531 59.8086 18.7031 59.1992 18.3672C58.5898 18.0234 58.1172 17.5938 57.7812 17.0781C57.4531 16.5625 57.2109 15.957 57.0547 15.2617C56.9062 14.5664 56.8203 13.7812 56.7969 12.9062C56.7734 12.0312 56.7617 11.0625 56.7617 10V1H59.0117V10C59.0117 11.125 59.0195 12.0938 59.0352 12.9062C59.0586 13.7109 59.125 14.3906 59.2344 14.9453C59.3438 15.5 59.5156 15.9453 59.75 16.2812C59.9922 16.6172 60.3359 16.875 60.7812 17.0547C61.2266 17.2344 61.7891 17.3555 62.4688 17.418C63.1562 17.4727 64 17.5 65 17.5H70.2734C71.2656 17.5 72.1055 17.4727 72.793 17.418C73.4805 17.3555 74.043 17.2344 74.4805 17.0547C74.9258 16.875 75.2695 16.6172 75.5117 16.2812C75.7539 15.9453 75.9297 15.5 76.0391 14.9453C76.1562 14.3906 76.2227 13.7109 76.2383 12.9062C76.2539 12.0938 76.2617 11.125 76.2617 10L76.25 1H78.5117ZM84.5234 2.5V19H82.2734V1H86.0234L96.5117 16.75L107 1H110.586V19H108.336V2.74609L97.6484 19H95.375L84.5234 2.5Z" fill="#1E1E1E"/>
<path d="M139.836 1V2.875H130.836V19H128.586V2.875H119.586V1H139.836ZM143.586 19V1H161.586V2.875H145.836V8.875H160.836V10.75H145.836V17.125H161.586V19H143.586ZM183.324 6.625C183.324 5.6875 183.223 4.94531 183.02 4.39844C182.816 3.85156 182.48 3.4375 182.012 3.15625C181.543 2.875 180.926 2.69531 180.16 2.61719C179.402 2.53906 178.461 2.5 177.336 2.5H172.074C171.074 2.5 170.23 2.53125 169.543 2.59375C168.863 2.64844 168.301 2.76562 167.855 2.94531C167.41 3.125 167.066 3.38281 166.824 3.71875C166.582 4.05469 166.406 4.5 166.297 5.05469C166.188 5.60938 166.125 6.29297 166.109 7.10547C166.094 7.91016 166.086 8.875 166.086 10C166.086 11.125 166.094 12.0938 166.109 12.9062C166.133 13.7109 166.199 14.3906 166.309 14.9453C166.418 15.5 166.59 15.9453 166.824 16.2812C167.066 16.6172 167.41 16.875 167.855 17.0547C168.301 17.2344 168.863 17.3555 169.543 17.418C170.23 17.4727 171.074 17.5 172.074 17.5H177.336C178.211 17.5 178.965 17.4766 179.598 17.4297C180.23 17.3828 180.77 17.2969 181.215 17.1719C181.66 17.0469 182.02 16.875 182.293 16.6562C182.566 16.4375 182.777 16.1641 182.926 15.8359C183.082 15.5 183.188 15.1016 183.242 14.6406C183.297 14.1719 183.324 13.625 183.324 13H185.574C185.574 13.75 185.527 14.4297 185.434 15.0391C185.34 15.6406 185.172 16.1797 184.93 16.6562C184.695 17.125 184.379 17.5312 183.98 17.875C183.582 18.2188 183.078 18.5039 182.469 18.7305C181.859 18.9492 181.133 19.1094 180.289 19.2109C179.445 19.3203 178.461 19.375 177.336 19.375H172.074C170.699 19.375 169.539 19.2891 168.594 19.1172C167.656 18.9531 166.883 18.7031 166.273 18.3672C165.664 18.0234 165.191 17.5938 164.855 17.0781C164.527 16.5625 164.285 15.957 164.129 15.2617C163.98 14.5664 163.895 13.7812 163.871 12.9062C163.848 12.0312 163.836 11.0625 163.836 10C163.836 8.9375 163.848 7.96875 163.871 7.09375C163.895 6.21875 163.98 5.43359 164.129 4.73828C164.285 4.04297 164.527 3.4375 164.855 2.92188C165.191 2.40625 165.664 1.98047 166.273 1.64453C166.883 1.30078 167.656 1.04688 168.594 0.882812C169.539 0.710938 170.699 0.625 172.074 0.625H177.336C178.461 0.625 179.445 0.679688 180.289 0.789062C181.133 0.890625 181.859 1.05078 182.469 1.26953C183.078 1.48047 183.582 1.75 183.98 2.07812C184.379 2.40625 184.695 2.79297 184.93 3.23828C185.172 3.68359 185.34 4.1875 185.434 4.75C185.527 5.3125 185.574 5.9375 185.574 6.625H183.324ZM208.086 1H210.336V19H208.086V10.75H191.586V19H189.336V1H191.586V8.875H208.086V1Z" fill="url(#paint0_linear_2_56)"/>
<defs>
<linearGradient id="paint0_linear_2_56" x1="-1" y1="8" x2="213" y2="8" gradientUnits="userSpaceOnUse">
<stop stop-color="#2D9EE0"/>
<stop offset="0.5" stop-color="#2F80ED"/>
<stop offset="1" stop-color="#4333FF"/>
</linearGradient>
</defs>
</svg>
